<svg xmlns="http://www.w3.org/2000/svg" xmlns:xlink="http://www.w3.org/1999/xlink" width="500" zoomAndPan="magnify" viewBox="0 0 375 374.999991" height="500" preserveAspectRatio="xMidYMid meet" version="1.2"><defs><clipPath id="2a45ee7bf8"><path d="M 170 162 L 185 162 L 185 207.390625 L 170 207.390625 Z M 170 162 "/></clipPath><clipPath id="470184b568"><path d="M 154.980469 146.496094 L 200.136719 146.496094 L 200.136719 160 L 154.980469 160 Z M 154.980469 146.496094 "/></clipPath><clipPath id="a1dfbbc9ee"><path d="M 154.980469 146.496094 L 178 146.496094 L 178 160 L 154.980469 160 Z M 154.980469 146.496094 "/></clipPath><clipPath id="4dd2a47466"><path d="M 177 146.496094 L 200.136719 146.496094 L 200.136719 160 L 177 160 Z M 177 146.496094 "/></clipPath><clipPath id="8a71f2d930"><path d="M 170 185 L 185 185 L 185 207.390625 L 170 207.390625 Z M 170 185 "/></clipPath><clipPath id="b21a37af23"><path d="M 61.839844 150.023438 L 104.261719 150.023438 L 104.261719 207.496094 L 61.839844 207.496094 Z M 61.839844 150.023438 "/></clipPath><clipPath id="e4f0cfbdbe"><path d="M 71 150.023438 L 103 150.023438 L 103 175 L 71 175 Z M 71 150.023438 "/></clipPath><clipPath id="8ecfeab256"><path d="M 61.839844 156 L 104.261719 156 L 104.261719 207.496094 L 61.839844 207.496094 Z M 61.839844 156 "/></clipPath></defs><g id="ac67f59d79"><g style="fill:#ffffff;fill-opacity:0.4;"><g transform="translate(108.654875, 207.330144)"><path style="stroke:none" d="M 5.1875 0 C 3.789062 0 2.738281 -0.367188 2.03125 -1.109375 C 1.332031 -1.859375 0.984375 -2.789062 0.984375 -3.90625 L 0.984375 -28.765625 C 0.984375 -29.992188 1.332031 -31.015625 2.03125 -31.828125 C 2.738281 -32.648438 3.789062 -33.0625 5.1875 -33.0625 C 6.445312 -33.0625 7.414062 -32.648438 8.09375 -31.828125 C 8.78125 -31.015625 9.125 -30.023438 9.125 -28.859375 L 9.125 -3.90625 C 9.125 -2.789062 8.78125 -1.859375 8.09375 -1.109375 C 7.414062 -0.367188 6.445312 0 5.1875 0 Z M 5.1875 0 "/></g></g><g style="fill:#ffffff;fill-opacity:0.4;"><g transform="translate(118.772105, 207.330144)"><path style="stroke:none" d="M 8.015625 0 C 6.015625 0 4.382812 -0.753906 3.125 -2.265625 C 1.875 -3.785156 1.234375 -5.914062 1.203125 -8.65625 L 1.15625 -18.5625 C 1.15625 -19.789062 1.535156 -20.753906 2.296875 -21.453125 C 3.054688 -22.160156 4.09375 -22.515625 5.40625 -22.515625 C 6.65625 -22.515625 7.664062 -22.160156 8.4375 -21.453125 C 9.21875 -20.753906 9.609375 -19.789062 9.609375 -18.5625 L 9.609375 -9.609375 C 9.609375 -7.460938 10.453125 -6.390625 12.140625 -6.390625 C 12.960938 -6.390625 13.515625 -6.695312 13.796875 -7.3125 C 14.085938 -7.925781 14.234375 -8.71875 14.234375 -9.6875 L 14.234375 -18.5625 C 14.234375 -19.675781 14.617188 -20.613281 15.390625 -21.375 C 16.160156 -22.132812 17.160156 -22.515625 18.390625 -22.515625 C 19.679688 -22.515625 20.675781 -22.132812 21.375 -21.375 C 22.070312 -20.613281 22.421875 -19.675781 22.421875 -18.5625 L 22.421875 -4.5 C 22.421875 -3.125 22.113281 -2.03125 21.5 -1.21875 C 20.882812 -0.40625 19.890625 0 18.515625 0 C 17.171875 0 16.117188 -0.40625 15.359375 -1.21875 C 14.609375 -2.03125 14.234375 -3.125 14.234375 -4.5 L 14.234375 -5.234375 L 13.46875 -5.234375 C 13.46875 -3.578125 12.972656 -2.289062 11.984375 -1.375 C 10.992188 -0.457031 9.671875 0 8.015625 0 Z M 8.015625 0 "/></g></g><g style="fill:#ffffff;fill-opacity:0.4;"><g transform="translate(142.264659, 207.330144)"><path style="stroke:none" d="M 0.984375 -11.140625 C 0.984375 -13.398438 1.429688 -15.382812 2.328125 -17.09375 C 3.234375 -18.8125 4.519531 -20.15625 6.1875 -21.125 C 7.863281 -22.101562 9.859375 -22.59375 12.171875 -22.59375 C 13.972656 -22.59375 15.59375 -22.265625 17.03125 -21.609375 C 18.476562 -20.953125 19.613281 -20.070312 20.4375 -18.96875 C 21.269531 -17.875 21.6875 -16.664062 21.6875 -15.34375 C 21.6875 -13.976562 21.285156 -13.007812 20.484375 -12.4375 C 19.691406 -11.863281 18.507812 -11.578125 16.9375 -11.578125 L 7.9375 -11.578125 C 7.9375 -10.835938 8.226562 -10.222656 8.8125 -9.734375 C 9.394531 -9.242188 10.390625 -9 11.796875 -9 C 12.503906 -9 13.164062 -9.070312 13.78125 -9.21875 C 14.394531 -9.363281 15.023438 -9.5 15.671875 -9.625 C 16.316406 -9.75 17.039062 -9.8125 17.84375 -9.8125 C 18.976562 -9.8125 19.914062 -9.40625 20.65625 -8.59375 C 21.40625 -7.78125 21.78125 -6.660156 21.78125 -5.234375 C 21.78125 -3.546875 20.914062 -2.226562 19.1875 -1.28125 C 17.457031 -0.34375 15.191406 0.125 12.390625 0.125 C 10.421875 0.125 8.570312 -0.257812 6.84375 -1.03125 C 5.113281 -1.800781 3.703125 -3.019531 2.609375 -4.6875 C 1.523438 -6.363281 0.984375 -8.515625 0.984375 -11.140625 Z M 14.875 -12.984375 C 15.300781 -12.984375 15.445312 -13.1875 15.3125 -13.59375 C 15.195312 -13.988281 14.851562 -14.398438 14.28125 -14.828125 C 13.707031 -15.265625 12.878906 -15.484375 11.796875 -15.484375 C 10.535156 -15.484375 9.597656 -15.207031 8.984375 -14.65625 C 8.367188 -14.113281 8.0625 -13.554688 8.0625 -12.984375 Z M 14.875 -12.984375 "/></g></g><g style="fill:#15297c;fill-opacity:1;"><g transform="translate(106.759967, 205.435236)"><path style="stroke:none" d="M 5.1875 0 C 3.789062 0 2.738281 -0.367188 2.03125 -1.109375 C 1.332031 -1.859375 0.984375 -2.789062 0.984375 -3.90625 L 0.984375 -28.765625 C 0.984375 -29.992188 1.332031 -31.015625 2.03125 -31.828125 C 2.738281 -32.648438 3.789062 -33.0625 5.1875 -33.0625 C 6.445312 -33.0625 7.414062 -32.648438 8.09375 -31.828125 C 8.78125 -31.015625 9.125 -30.023438 9.125 -28.859375 L 9.125 -3.90625 C 9.125 -2.789062 8.78125 -1.859375 8.09375 -1.109375 C 7.414062 -0.367188 6.445312 0 5.1875 0 Z M 5.1875 0 "/></g></g><g style="fill:#15297c;fill-opacity:1;"><g transform="translate(116.877197, 205.435236)"><path style="stroke:none" d="M 8.015625 0 C 6.015625 0 4.382812 -0.753906 3.125 -2.265625 C 1.875 -3.785156 1.234375 -5.914062 1.203125 -8.65625 L 1.15625 -18.5625 C 1.15625 -19.789062 1.535156 -20.753906 2.296875 -21.453125 C 3.054688 -22.160156 4.09375 -22.515625 5.40625 -22.515625 C 6.65625 -22.515625 7.664062 -22.160156 8.4375 -21.453125 C 9.21875 -20.753906 9.609375 -19.789062 9.609375 -18.5625 L 9.609375 -9.609375 C 9.609375 -7.460938 10.453125 -6.390625 12.140625 -6.390625 C 12.960938 -6.390625 13.515625 -6.695312 13.796875 -7.3125 C 14.085938 -7.925781 14.234375 -8.71875 14.234375 -9.6875 L 14.234375 -18.5625 C 14.234375 -19.675781 14.617188 -20.613281 15.390625 -21.375 C 16.160156 -22.132812 17.160156 -22.515625 18.390625 -22.515625 C 19.679688 -22.515625 20.675781 -22.132812 21.375 -21.375 C 22.070312 -20.613281 22.421875 -19.675781 22.421875 -18.5625 L 22.421875 -4.5 C 22.421875 -3.125 22.113281 -2.03125 21.5 -1.21875 C 20.882812 -0.40625 19.890625 0 18.515625 0 C 17.171875 0 16.117188 -0.40625 15.359375 -1.21875 C 14.609375 -2.03125 14.234375 -3.125 14.234375 -4.5 L 14.234375 -5.234375 L 13.46875 -5.234375 C 13.46875 -3.578125 12.972656 -2.289062 11.984375 -1.375 C 10.992188 -0.457031 9.671875 0 8.015625 0 Z M 8.015625 0 "/></g></g><g style="fill:#15297c;fill-opacity:1;"><g transform="translate(140.369751, 205.435236)"><path style="stroke:none" d="M 0.984375 -11.140625 C 0.984375 -13.398438 1.429688 -15.382812 2.328125 -17.09375 C 3.234375 -18.8125 4.519531 -20.15625 6.1875 -21.125 C 7.863281 -22.101562 9.859375 -22.59375 12.171875 -22.59375 C 13.972656 -22.59375 15.59375 -22.265625 17.03125 -21.609375 C 18.476562 -20.953125 19.613281 -20.070312 20.4375 -18.96875 C 21.269531 -17.875 21.6875 -16.664062 21.6875 -15.34375 C 21.6875 -13.976562 21.285156 -13.007812 20.484375 -12.4375 C 19.691406 -11.863281 18.507812 -11.578125 16.9375 -11.578125 L 7.9375 -11.578125 C 7.9375 -10.835938 8.226562 -10.222656 8.8125 -9.734375 C 9.394531 -9.242188 10.390625 -9 11.796875 -9 C 12.503906 -9 13.164062 -9.070312 13.78125 -9.21875 C 14.394531 -9.363281 15.023438 -9.5 15.671875 -9.625 C 16.316406 -9.75 17.039062 -9.8125 17.84375 -9.8125 C 18.976562 -9.8125 19.914062 -9.40625 20.65625 -8.59375 C 21.40625 -7.78125 21.78125 -6.660156 21.78125 -5.234375 C 21.78125 -3.546875 20.914062 -2.226562 19.1875 -1.28125 C 17.457031 -0.34375 15.191406 0.125 12.390625 0.125 C 10.421875 0.125 8.570312 -0.257812 6.84375 -1.03125 C 5.113281 -1.800781 3.703125 -3.019531 2.609375 -4.6875 C 1.523438 -6.363281 0.984375 -8.515625 0.984375 -11.140625 Z M 14.875 -12.984375 C 15.300781 -12.984375 15.445312 -13.1875 15.3125 -13.59375 C 15.195312 -13.988281 14.851562 -14.398438 14.28125 -14.828125 C 13.707031 -15.265625 12.878906 -15.484375 11.796875 -15.484375 C 10.535156 -15.484375 9.597656 -15.207031 8.984375 -14.65625 C 8.367188 -14.113281 8.0625 -13.554688 8.0625 -12.984375 Z M 14.875 -12.984375 "/></g></g><g style="fill:#ffffff;fill-opacity:0.4;"><g transform="translate(164.823792, 207.330144)"><path style="stroke:none" d=""/></g></g><g style="fill:#ffffff;fill-opacity:0.4;"><g transform="translate(172.540324, 207.330144)"><path style="stroke:none" d=""/></g></g><g style="fill:#ffffff;fill-opacity:0.4;"><g transform="translate(180.256856, 207.330144)"><path style="stroke:none" d=""/></g></g><g style="fill:#ffffff;fill-opacity:0.4;"><g transform="translate(187.973388, 207.330144)"><path style="stroke:none" d=""/></g></g><g style="fill:#ffffff;fill-opacity:0.4;"><g transform="translate(195.68992, 207.330144)"><path style="stroke:none" d=""/></g></g><g style="fill:#ffffff;fill-opacity:0.4;"><g transform="translate(203.406452, 207.330144)"><path style="stroke:none" d=""/></g></g><g style="fill:#ffffff;fill-opacity:0.4;"><g transform="translate(211.122984, 207.330144)"><path style="stroke:none" d=""/></g></g><g style="fill:#15297c;fill-opacity:1;"><g transform="translate(162.928884, 205.435236)"><path style="stroke:none" d=""/></g></g><g style="fill:#15297c;fill-opacity:1;"><g transform="translate(170.645416, 205.435236)"><path style="stroke:none" d=""/></g></g><g style="fill:#15297c;fill-opacity:1;"><g transform="translate(178.361948, 205.435236)"><path style="stroke:none" d=""/></g></g><g style="fill:#15297c;fill-opacity:1;"><g transform="translate(186.07848, 205.435236)"><path style="stroke:none" d=""/></g></g><g style="fill:#15297c;fill-opacity:1;"><g transform="translate(193.795012, 205.435236)"><path style="stroke:none" d=""/></g></g><g style="fill:#15297c;fill-opacity:1;"><g transform="translate(201.511544, 205.435236)"><path style="stroke:none" d=""/></g></g><g style="fill:#15297c;fill-opacity:1;"><g transform="translate(209.228076, 205.435236)"><path style="stroke:none" d=""/></g></g><g clip-rule="nonzero" clip-path="url(#2a45ee7bf8)"><path style=" stroke:none;fill-rule:nonzero;fill:#083ed1;fill-opacity:1;" d="M 170.570312 207.390625 L 176.441406 207.390625 C 180.847656 207.390625 184.421875 203.816406 184.421875 199.410156 L 184.421875 162.617188 L 178.554688 162.617188 C 174.144531 162.617188 170.570312 166.191406 170.570312 170.597656 Z M 170.570312 207.390625 "/></g><g clip-rule="nonzero" clip-path="url(#470184b568)"><path style=" stroke:none;fill-rule:nonzero;fill:#083ed1;fill-opacity:1;" d="M 154.988281 154.480469 L 154.988281 159.828125 L 192.023438 159.828125 C 196.429688 159.828125 200.003906 156.253906 200.003906 151.847656 L 200.003906 146.496094 L 162.96875 146.496094 C 158.5625 146.496094 154.988281 150.070312 154.988281 154.480469 Z M 154.988281 154.480469 "/></g><g clip-rule="nonzero" clip-path="url(#a1dfbbc9ee)"><path style=" stroke:none;fill-rule:nonzero;fill:#049aff;fill-opacity:1;" d="M 177.496094 146.496094 L 162.96875 146.496094 C 158.5625 146.496094 154.988281 150.070312 154.988281 154.480469 L 154.988281 159.828125 L 165.667969 159.828125 C 165.667969 151.792969 171.238281 147.125 177.496094 146.496094 Z M 177.496094 146.496094 "/></g><g clip-rule="nonzero" clip-path="url(#4dd2a47466)"><path style=" stroke:none;fill-rule:nonzero;fill:#15297c;fill-opacity:1;" d="M 177.496094 159.828125 L 192.023438 159.828125 C 196.429688 159.828125 200.003906 156.253906 200.003906 151.847656 L 200.003906 146.496094 L 189.328125 146.496094 C 189.328125 154.535156 183.753906 159.199219 177.496094 159.828125 Z M 177.496094 159.828125 "/></g><path style=" stroke:none;fill-rule:nonzero;fill:#049aff;fill-opacity:1;" d="M 178.554688 162.617188 C 174.144531 162.617188 170.570312 166.191406 170.570312 170.597656 L 170.570312 185.003906 C 171.878906 177.703125 175.820312 173.371094 184.421875 173.371094 L 184.421875 162.617188 Z M 178.554688 162.617188 "/><g clip-rule="nonzero" clip-path="url(#8a71f2d930)"><path style=" stroke:none;fill-rule:nonzero;fill:#15297c;fill-opacity:1;" d="M 176.441406 207.390625 C 180.847656 207.390625 184.421875 203.816406 184.421875 199.410156 L 184.421875 185.003906 C 183.113281 192.304688 179.171875 196.636719 170.570312 196.636719 L 170.570312 207.390625 Z M 176.441406 207.390625 "/></g><g clip-rule="nonzero" clip-path="url(#b21a37af23)"><path style=" stroke:none;fill-rule:nonzero;fill:#049aff;fill-opacity:1;" d="M 100.441406 180.175781 C 99.511719 179.160156 98.4375 178.269531 97.246094 177.511719 C 100.34375 174.820312 102.222656 171.070312 102.222656 166.335938 C 102.222656 156.464844 94.144531 150.023438 84.195312 150.023438 L 70.855469 150.023438 C 65.878906 150.023438 61.84375 154.058594 61.84375 159.035156 L 61.84375 207.125 L 64.601562 207.125 C 70.285156 207.125 74.894531 202.515625 74.894531 196.832031 L 74.894531 187.214844 C 74.894531 186.78125 74.976562 186.367188 75.144531 185.96875 C 75.308594 185.570312 75.542969 185.214844 75.847656 184.910156 C 76.15625 184.605469 76.507812 184.371094 76.90625 184.207031 C 77.304688 184.039062 77.71875 183.957031 78.152344 183.957031 L 85.828125 183.957031 C 89.089844 183.957031 91.210938 186.242188 91.210938 189.421875 C 91.210938 192.289062 89.488281 194.429688 86.757812 194.824219 C 86.449219 194.867188 86.136719 194.886719 85.828125 194.886719 L 78.113281 194.886719 L 78.113281 202.597656 C 78.113281 205.097656 80.140625 207.125 82.640625 207.125 L 85.824219 207.125 C 96.023438 207.125 104.261719 200.515625 104.261719 190.402344 C 104.261719 186.234375 102.828125 182.785156 100.441406 180.175781 Z M 84.105469 172.375 L 74.894531 172.375 L 74.894531 164.417969 C 74.894531 164.132812 74.949219 163.855469 75.058594 163.589844 C 75.167969 163.328125 75.324219 163.09375 75.527344 162.890625 C 75.730469 162.6875 75.960938 162.53125 76.226562 162.421875 C 76.492188 162.3125 76.765625 162.257812 77.054688 162.257812 L 84.195312 162.257812 C 87.234375 162.257812 89.199219 164.410156 89.167969 167.382812 C 89.140625 170.152344 86.875 172.375 84.105469 172.375 Z M 84.105469 172.375 "/></g><g clip-rule="nonzero" clip-path="url(#e4f0cfbdbe)"><path style=" stroke:none;fill-rule:nonzero;fill:#083ed1;fill-opacity:1;" d="M 89.164062 167.101562 C 89.167969 167.195312 89.167969 167.289062 89.167969 167.382812 C 89.140625 170.152344 86.875 172.375 84.105469 172.375 L 83.023438 172.375 L 81.75 174.902344 L 100.828125 172.835938 C 101.726562 170.933594 102.222656 168.765625 102.222656 166.335938 C 102.222656 156.46875 94.144531 150.023438 84.195312 150.023438 L 71.527344 150.023438 C 71.527344 150.023438 88.894531 155.261719 89.164062 167.101562 Z M 89.164062 167.101562 "/></g><g clip-rule="nonzero" clip-path="url(#8ecfeab256)"><path style=" stroke:none;fill-rule:nonzero;fill:#15297c;fill-opacity:1;" d="M 61.84375 207.125 L 61.84375 185.324219 C 61.84375 185.324219 61.953125 172.375 74.894531 172.375 L 84.105469 172.375 C 86.238281 172.375 98.640625 171.621094 98.640625 156.207031 C 100.890625 158.886719 102.222656 162.328125 102.222656 166.335938 C 102.222656 171.070312 100.34375 174.820312 97.246094 177.511719 C 97.246094 177.511719 90.34375 183.957031 83.050781 183.957031 L 78.152344 183.957031 C 77.71875 183.957031 77.304688 184.039062 76.90625 184.207031 C 76.507812 184.371094 76.152344 184.605469 75.847656 184.910156 C 75.542969 185.214844 75.308594 185.570312 75.140625 185.96875 C 74.976562 186.367188 74.894531 186.78125 74.894531 187.214844 L 74.894531 196.832031 C 74.894531 202.515625 70.285156 207.125 64.601562 207.125 Z M 100.441406 180.175781 C 100.441406 192.472656 91.949219 194.492188 86.753906 194.824219 C 85.761719 194.886719 84.890625 194.886719 84.21875 194.886719 L 78.113281 194.886719 L 78.113281 202.597656 C 78.113281 205.097656 80.140625 207.125 82.640625 207.125 L 85.824219 207.125 C 96.023438 207.125 104.261719 200.515625 104.261719 190.402344 C 104.261719 186.234375 102.828125 182.785156 100.441406 180.175781 Z M 100.441406 180.175781 "/></g><g style="fill:#ffffff;fill-opacity:0.4;"><g transform="translate(191.90773, 207.330144)"><path style="stroke:none" d="M 7.5 0 C 5.382812 0 3.734375 -0.570312 2.546875 -1.71875 C 1.359375 -2.863281 0.765625 -4.460938 0.765625 -6.515625 C 0.765625 -8.578125 1.453125 -10.070312 2.828125 -11 C 4.203125 -11.925781 5.960938 -12.390625 8.109375 -12.390625 C 9.359375 -12.390625 10.5 -12.300781 11.53125 -12.125 C 12.5625 -11.957031 13.488281 -11.71875 14.3125 -11.40625 L 14.453125 -11.40625 L 14.453125 -12.046875 C 14.453125 -12.703125 14.207031 -13.222656 13.71875 -13.609375 C 13.226562 -13.992188 12.613281 -14.175781 11.875 -14.15625 C 11.15625 -14.15625 10.546875 -14.109375 10.046875 -14.015625 C 9.546875 -13.929688 8.925781 -13.789062 8.1875 -13.59375 C 6.8125 -13.25 5.625 -13.273438 4.625 -13.671875 C 3.625 -14.078125 2.941406 -14.863281 2.578125 -16.03125 C 2.234375 -17.257812 2.3125 -18.285156 2.8125 -19.109375 C 3.3125 -19.941406 4.078125 -20.585938 5.109375 -21.046875 C 5.992188 -21.472656 6.984375 -21.828125 8.078125 -22.109375 C 9.179688 -22.398438 10.375 -22.546875 11.65625 -22.546875 C 15.40625 -22.546875 18.15625 -21.640625 19.90625 -19.828125 C 21.664062 -18.015625 22.546875 -14.976562 22.546875 -10.71875 L 22.546875 -4.078125 C 22.546875 -2.898438 22.1875 -1.925781 21.46875 -1.15625 C 20.757812 -0.382812 19.773438 0 18.515625 0 C 17.148438 0 16.128906 -0.382812 15.453125 -1.15625 C 14.785156 -1.925781 14.453125 -2.867188 14.453125 -3.984375 L 14.453125 -4.96875 L 13.59375 -4.96875 C 13.59375 -4.226562 13.457031 -3.472656 13.1875 -2.703125 C 12.914062 -1.929688 12.359375 -1.285156 11.515625 -0.765625 C 10.671875 -0.253906 9.332031 0 7.5 0 Z M 7.9375 -9.390625 C 7.9375 -8.898438 8.113281 -8.554688 8.46875 -8.359375 C 8.820312 -8.160156 9.597656 -8.0625 10.796875 -8.0625 C 11.890625 -8.0625 12.648438 -8.160156 13.078125 -8.359375 C 13.503906 -8.554688 13.71875 -8.898438 13.71875 -9.390625 C 13.71875 -9.847656 13.503906 -10.171875 13.078125 -10.359375 C 12.648438 -10.546875 11.890625 -10.640625 10.796875 -10.640625 C 9.597656 -10.640625 8.820312 -10.546875 8.46875 -10.359375 C 8.113281 -10.171875 7.9375 -9.847656 7.9375 -9.390625 Z M 7.9375 -9.390625 "/></g></g><g style="fill:#ffffff;fill-opacity:0.4;"><g transform="translate(215.528896, 207.330144)"><path style="stroke:none" d="M 5.1875 0 C 3.789062 0 2.738281 -0.367188 2.03125 -1.109375 C 1.332031 -1.859375 0.984375 -2.789062 0.984375 -3.90625 L 0.984375 -28.765625 C 0.984375 -29.992188 1.332031 -31.015625 2.03125 -31.828125 C 2.738281 -32.648438 3.789062 -33.0625 5.1875 -33.0625 C 6.445312 -33.0625 7.414062 -32.648438 8.09375 -31.828125 C 8.78125 -31.015625 9.125 -30.023438 9.125 -28.859375 L 9.125 -3.90625 C 9.125 -2.789062 8.78125 -1.859375 8.09375 -1.109375 C 7.414062 -0.367188 6.445312 0 5.1875 0 Z M 5.1875 0 "/></g></g><g style="fill:#ffffff;fill-opacity:0.4;"><g transform="translate(225.646126, 207.330144)"><path style="stroke:none" d="M 0.984375 -11.140625 C 0.984375 -13.398438 1.429688 -15.382812 2.328125 -17.09375 C 3.234375 -18.8125 4.519531 -20.15625 6.1875 -21.125 C 7.863281 -22.101562 9.859375 -22.59375 12.171875 -22.59375 C 13.972656 -22.59375 15.59375 -22.265625 17.03125 -21.609375 C 18.476562 -20.953125 19.613281 -20.070312 20.4375 -18.96875 C 21.269531 -17.875 21.6875 -16.664062 21.6875 -15.34375 C 21.6875 -13.976562 21.285156 -13.007812 20.484375 -12.4375 C 19.691406 -11.863281 18.507812 -11.578125 16.9375 -11.578125 L 7.9375 -11.578125 C 7.9375 -10.835938 8.226562 -10.222656 8.8125 -9.734375 C 9.394531 -9.242188 10.390625 -9 11.796875 -9 C 12.503906 -9 13.164062 -9.070312 13.78125 -9.21875 C 14.394531 -9.363281 15.023438 -9.5 15.671875 -9.625 C 16.316406 -9.75 17.039062 -9.8125 17.84375 -9.8125 C 18.976562 -9.8125 19.914062 -9.40625 20.65625 -8.59375 C 21.40625 -7.78125 21.78125 -6.660156 21.78125 -5.234375 C 21.78125 -3.546875 20.914062 -2.226562 19.1875 -1.28125 C 17.457031 -0.34375 15.191406 0.125 12.390625 0.125 C 10.421875 0.125 8.570312 -0.257812 6.84375 -1.03125 C 5.113281 -1.800781 3.703125 -3.019531 2.609375 -4.6875 C 1.523438 -6.363281 0.984375 -8.515625 0.984375 -11.140625 Z M 14.875 -12.984375 C 15.300781 -12.984375 15.445312 -13.1875 15.3125 -13.59375 C 15.195312 -13.988281 14.851562 -14.398438 14.28125 -14.828125 C 13.707031 -15.265625 12.878906 -15.484375 11.796875 -15.484375 C 10.535156 -15.484375 9.597656 -15.207031 8.984375 -14.65625 C 8.367188 -14.113281 8.0625 -13.554688 8.0625 -12.984375 Z M 14.875 -12.984375 "/></g></g><g style="fill:#ffffff;fill-opacity:0.4;"><g transform="translate(248.19555, 207.330144)"><path style="stroke:none" d="M 5.3125 0 C 4.0625 0 3.054688 -0.375 2.296875 -1.125 C 1.535156 -1.882812 1.15625 -2.820312 1.15625 -3.9375 L 1.15625 -18.140625 C 1.15625 -19.335938 1.507812 -20.347656 2.21875 -21.171875 C 2.9375 -22.003906 3.96875 -22.421875 5.3125 -22.421875 C 6.625 -22.421875 7.625 -22.003906 8.3125 -21.171875 C 9 -20.347656 9.34375 -19.304688 9.34375 -18.046875 L 9.34375 -15.90625 L 10.125 -15.90625 C 10.125 -17.53125 10.414062 -18.816406 11 -19.765625 C 11.582031 -20.710938 12.332031 -21.390625 13.25 -21.796875 C 14.164062 -22.210938 15.082031 -22.421875 16 -22.421875 C 18.195312 -22.421875 19.804688 -21.628906 20.828125 -20.046875 C 21.859375 -18.460938 22.375 -16.210938 22.375 -13.296875 L 22.375 -3.9375 C 22.375 -2.820312 22.003906 -1.882812 21.265625 -1.125 C 20.523438 -0.375 19.523438 0 18.265625 0 C 16.972656 0 15.945312 -0.375 15.1875 -1.125 C 14.4375 -1.882812 14.0625 -2.820312 14.0625 -3.9375 L 14.0625 -11.53125 C 14.0625 -12.5625 13.867188 -13.363281 13.484375 -13.9375 C 13.097656 -14.507812 12.535156 -14.796875 11.796875 -14.796875 C 10.929688 -14.796875 10.304688 -14.476562 9.921875 -13.84375 C 9.535156 -13.21875 9.34375 -12.421875 9.34375 -11.453125 L 9.34375 -3.9375 C 9.34375 -2.820312 8.984375 -1.882812 8.265625 -1.125 C 7.554688 -0.375 6.570312 0 5.3125 0 Z M 5.3125 0 "/></g></g><g style="fill:#ffffff;fill-opacity:0.4;"><g transform="translate(271.645237, 207.330144)"><path style="stroke:none" d="M 13.59375 0.125 C 12.070312 0.125 10.703125 -0.210938 9.484375 -0.890625 C 8.273438 -1.578125 7.328125 -2.554688 6.640625 -3.828125 C 5.953125 -5.109375 5.609375 -6.601562 5.609375 -8.3125 L 5.609375 -15.859375 L 4.03125 -15.65625 C 3.175781 -15.539062 2.414062 -15.835938 1.75 -16.546875 C 1.09375 -17.265625 0.765625 -18.164062 0.765625 -19.25 C 0.765625 -20.332031 1.09375 -21.222656 1.75 -21.921875 C 2.414062 -22.628906 3.175781 -22.925781 4.03125 -22.8125 L 5.609375 -22.59375 L 5.578125 -25.515625 C 5.546875 -26.648438 5.875 -27.550781 6.5625 -28.21875 C 7.25 -28.894531 8.25 -29.234375 9.5625 -29.234375 C 10.875 -29.234375 11.882812 -28.894531 12.59375 -28.21875 C 13.3125 -27.550781 13.644531 -26.648438 13.59375 -25.515625 L 13.5 -22.59375 L 15.78125 -22.890625 C 17.320312 -23.117188 18.492188 -22.835938 19.296875 -22.046875 C 20.097656 -21.265625 20.5 -20.332031 20.5 -19.25 C 20.5 -18.164062 20.101562 -17.226562 19.3125 -16.4375 C 18.53125 -15.65625 17.394531 -15.363281 15.90625 -15.5625 L 13.5 -15.859375 L 13.5 -9.46875 C 13.5 -9.101562 13.628906 -8.769531 13.890625 -8.46875 C 14.148438 -8.164062 14.460938 -8.070312 14.828125 -8.1875 C 15.265625 -8.300781 15.71875 -8.539062 16.1875 -8.90625 C 16.65625 -9.28125 17.257812 -9.46875 18 -9.46875 C 19.113281 -9.46875 19.972656 -9.066406 20.578125 -8.265625 C 21.179688 -7.472656 21.484375 -6.488281 21.484375 -5.3125 C 21.484375 -4.394531 21.160156 -3.515625 20.515625 -2.671875 C 19.867188 -1.835938 18.957031 -1.160156 17.78125 -0.640625 C 16.613281 -0.128906 15.21875 0.125 13.59375 0.125 Z M 13.59375 0.125 "/></g></g><g style="fill:#15297c;fill-opacity:1;"><g transform="translate(190.012825, 205.435236)"><path style="stroke:none" d="M 7.5 0 C 5.382812 0 3.734375 -0.570312 2.546875 -1.71875 C 1.359375 -2.863281 0.765625 -4.460938 0.765625 -6.515625 C 0.765625 -8.578125 1.453125 -10.070312 2.828125 -11 C 4.203125 -11.925781 5.960938 -12.390625 8.109375 -12.390625 C 9.359375 -12.390625 10.5 -12.300781 11.53125 -12.125 C 12.5625 -11.957031 13.488281 -11.71875 14.3125 -11.40625 L 14.453125 -11.40625 L 14.453125 -12.046875 C 14.453125 -12.703125 14.207031 -13.222656 13.71875 -13.609375 C 13.226562 -13.992188 12.613281 -14.175781 11.875 -14.15625 C 11.15625 -14.15625 10.546875 -14.109375 10.046875 -14.015625 C 9.546875 -13.929688 8.925781 -13.789062 8.1875 -13.59375 C 6.8125 -13.25 5.625 -13.273438 4.625 -13.671875 C 3.625 -14.078125 2.941406 -14.863281 2.578125 -16.03125 C 2.234375 -17.257812 2.3125 -18.285156 2.8125 -19.109375 C 3.3125 -19.941406 4.078125 -20.585938 5.109375 -21.046875 C 5.992188 -21.472656 6.984375 -21.828125 8.078125 -22.109375 C 9.179688 -22.398438 10.375 -22.546875 11.65625 -22.546875 C 15.40625 -22.546875 18.15625 -21.640625 19.90625 -19.828125 C 21.664062 -18.015625 22.546875 -14.976562 22.546875 -10.71875 L 22.546875 -4.078125 C 22.546875 -2.898438 22.1875 -1.925781 21.46875 -1.15625 C 20.757812 -0.382812 19.773438 0 18.515625 0 C 17.148438 0 16.128906 -0.382812 15.453125 -1.15625 C 14.785156 -1.925781 14.453125 -2.867188 14.453125 -3.984375 L 14.453125 -4.96875 L 13.59375 -4.96875 C 13.59375 -4.226562 13.457031 -3.472656 13.1875 -2.703125 C 12.914062 -1.929688 12.359375 -1.285156 11.515625 -0.765625 C 10.671875 -0.253906 9.332031 0 7.5 0 Z M 7.9375 -9.390625 C 7.9375 -8.898438 8.113281 -8.554688 8.46875 -8.359375 C 8.820312 -8.160156 9.597656 -8.0625 10.796875 -8.0625 C 11.890625 -8.0625 12.648438 -8.160156 13.078125 -8.359375 C 13.503906 -8.554688 13.71875 -8.898438 13.71875 -9.390625 C 13.71875 -9.847656 13.503906 -10.171875 13.078125 -10.359375 C 12.648438 -10.546875 11.890625 -10.640625 10.796875 -10.640625 C 9.597656 -10.640625 8.820312 -10.546875 8.46875 -10.359375 C 8.113281 -10.171875 7.9375 -9.847656 7.9375 -9.390625 Z M 7.9375 -9.390625 "/></g></g><g style="fill:#15297c;fill-opacity:1;"><g transform="translate(213.633991, 205.435236)"><path style="stroke:none" d="M 5.1875 0 C 3.789062 0 2.738281 -0.367188 2.03125 -1.109375 C 1.332031 -1.859375 0.984375 -2.789062 0.984375 -3.90625 L 0.984375 -28.765625 C 0.984375 -29.992188 1.332031 -31.015625 2.03125 -31.828125 C 2.738281 -32.648438 3.789062 -33.0625 5.1875 -33.0625 C 6.445312 -33.0625 7.414062 -32.648438 8.09375 -31.828125 C 8.78125 -31.015625 9.125 -30.023438 9.125 -28.859375 L 9.125 -3.90625 C 9.125 -2.789062 8.78125 -1.859375 8.09375 -1.109375 C 7.414062 -0.367188 6.445312 0 5.1875 0 Z M 5.1875 0 "/></g></g><g style="fill:#15297c;fill-opacity:1;"><g transform="translate(223.751221, 205.435236)"><path style="stroke:none" d="M 0.984375 -11.140625 C 0.984375 -13.398438 1.429688 -15.382812 2.328125 -17.09375 C 3.234375 -18.8125 4.519531 -20.15625 6.1875 -21.125 C 7.863281 -22.101562 9.859375 -22.59375 12.171875 -22.59375 C 13.972656 -22.59375 15.59375 -22.265625 17.03125 -21.609375 C 18.476562 -20.953125 19.613281 -20.070312 20.4375 -18.96875 C 21.269531 -17.875 21.6875 -16.664062 21.6875 -15.34375 C 21.6875 -13.976562 21.285156 -13.007812 20.484375 -12.4375 C 19.691406 -11.863281 18.507812 -11.578125 16.9375 -11.578125 L 7.9375 -11.578125 C 7.9375 -10.835938 8.226562 -10.222656 8.8125 -9.734375 C 9.394531 -9.242188 10.390625 -9 11.796875 -9 C 12.503906 -9 13.164062 -9.070312 13.78125 -9.21875 C 14.394531 -9.363281 15.023438 -9.5 15.671875 -9.625 C 16.316406 -9.75 17.039062 -9.8125 17.84375 -9.8125 C 18.976562 -9.8125 19.914062 -9.40625 20.65625 -8.59375 C 21.40625 -7.78125 21.78125 -6.660156 21.78125 -5.234375 C 21.78125 -3.546875 20.914062 -2.226562 19.1875 -1.28125 C 17.457031 -0.34375 15.191406 0.125 12.390625 0.125 C 10.421875 0.125 8.570312 -0.257812 6.84375 -1.03125 C 5.113281 -1.800781 3.703125 -3.019531 2.609375 -4.6875 C 1.523438 -6.363281 0.984375 -8.515625 0.984375 -11.140625 Z M 14.875 -12.984375 C 15.300781 -12.984375 15.445312 -13.1875 15.3125 -13.59375 C 15.195312 -13.988281 14.851562 -14.398438 14.28125 -14.828125 C 13.707031 -15.265625 12.878906 -15.484375 11.796875 -15.484375 C 10.535156 -15.484375 9.597656 -15.207031 8.984375 -14.65625 C 8.367188 -14.113281 8.0625 -13.554688 8.0625 -12.984375 Z M 14.875 -12.984375 "/></g></g><g style="fill:#15297c;fill-opacity:1;"><g transform="translate(246.300645, 205.435236)"><path style="stroke:none" d="M 5.3125 0 C 4.0625 0 3.054688 -0.375 2.296875 -1.125 C 1.535156 -1.882812 1.15625 -2.820312 1.15625 -3.9375 L 1.15625 -18.140625 C 1.15625 -19.335938 1.507812 -20.347656 2.21875 -21.171875 C 2.9375 -22.003906 3.96875 -22.421875 5.3125 -22.421875 C 6.625 -22.421875 7.625 -22.003906 8.3125 -21.171875 C 9 -20.347656 9.34375 -19.304688 9.34375 -18.046875 L 9.34375 -15.90625 L 10.125 -15.90625 C 10.125 -17.53125 10.414062 -18.816406 11 -19.765625 C 11.582031 -20.710938 12.332031 -21.390625 13.25 -21.796875 C 14.164062 -22.210938 15.082031 -22.421875 16 -22.421875 C 18.195312 -22.421875 19.804688 -21.628906 20.828125 -20.046875 C 21.859375 -18.460938 22.375 -16.210938 22.375 -13.296875 L 22.375 -3.9375 C 22.375 -2.820312 22.003906 -1.882812 21.265625 -1.125 C 20.523438 -0.375 19.523438 0 18.265625 0 C 16.972656 0 15.945312 -0.375 15.1875 -1.125 C 14.4375 -1.882812 14.0625 -2.820312 14.0625 -3.9375 L 14.0625 -11.53125 C 14.0625 -12.5625 13.867188 -13.363281 13.484375 -13.9375 C 13.097656 -14.507812 12.535156 -14.796875 11.796875 -14.796875 C 10.929688 -14.796875 10.304688 -14.476562 9.921875 -13.84375 C 9.535156 -13.21875 9.34375 -12.421875 9.34375 -11.453125 L 9.34375 -3.9375 C 9.34375 -2.820312 8.984375 -1.882812 8.265625 -1.125 C 7.554688 -0.375 6.570312 0 5.3125 0 Z M 5.3125 0 "/></g></g><g style="fill:#15297c;fill-opacity:1;"><g transform="translate(269.750332, 205.435236)"><path style="stroke:none" d="M 13.59375 0.125 C 12.070312 0.125 10.703125 -0.210938 9.484375 -0.890625 C 8.273438 -1.578125 7.328125 -2.554688 6.640625 -3.828125 C 5.953125 -5.109375 5.609375 -6.601562 5.609375 -8.3125 L 5.609375 -15.859375 L 4.03125 -15.65625 C 3.175781 -15.539062 2.414062 -15.835938 1.75 -16.546875 C 1.09375 -17.265625 0.765625 -18.164062 0.765625 -19.25 C 0.765625 -20.332031 1.09375 -21.222656 1.75 -21.921875 C 2.414062 -22.628906 3.175781 -22.925781 4.03125 -22.8125 L 5.609375 -22.59375 L 5.578125 -25.515625 C 5.546875 -26.648438 5.875 -27.550781 6.5625 -28.21875 C 7.25 -28.894531 8.25 -29.234375 9.5625 -29.234375 C 10.875 -29.234375 11.882812 -28.894531 12.59375 -28.21875 C 13.3125 -27.550781 13.644531 -26.648438 13.59375 -25.515625 L 13.5 -22.59375 L 15.78125 -22.890625 C 17.320312 -23.117188 18.492188 -22.835938 19.296875 -22.046875 C 20.097656 -21.265625 20.5 -20.332031 20.5 -19.25 C 20.5 -18.164062 20.101562 -17.226562 19.3125 -16.4375 C 18.53125 -15.65625 17.394531 -15.363281 15.90625 -15.5625 L 13.5 -15.859375 L 13.5 -9.46875 C 13.5 -9.101562 13.628906 -8.769531 13.890625 -8.46875 C 14.148438 -8.164062 14.460938 -8.070312 14.828125 -8.1875 C 15.265625 -8.300781 15.71875 -8.539062 16.1875 -8.90625 C 16.65625 -9.28125 17.257812 -9.46875 18 -9.46875 C 19.113281 -9.46875 19.972656 -9.066406 20.578125 -8.265625 C 21.179688 -7.472656 21.484375 -6.488281 21.484375 -5.3125 C 21.484375 -4.394531 21.160156 -3.515625 20.515625 -2.671875 C 19.867188 -1.835938 18.957031 -1.160156 17.78125 -0.640625 C 16.613281 -0.128906 15.21875 0.125 13.59375 0.125 Z M 13.59375 0.125 "/></g></g></g></svg>